<?xml version="1.0" encoding="utf-8" standalone="no"?>
<!DOCTYPE svg PUBLIC "-//W3C//DTD SVG 1.1//EN"
  "http://www.w3.org/Graphics/SVG/1.1/DTD/svg11.dtd">
<svg xmlns:xlink="http://www.w3.org/1999/xlink" width="246.151406pt" height="229.565469pt" viewBox="0 0 246.151406 229.565469" xmlns="http://www.w3.org/2000/svg" version="1.1">
 <metadata>
  <rdf:RDF xmlns:dc="http://purl.org/dc/elements/1.1/" xmlns:cc="http://creativecommons.org/ns#" xmlns:rdf="http://www.w3.org/1999/02/22-rdf-syntax-ns#">
   <cc:Work>
    <dc:type rdf:resource="http://purl.org/dc/dcmitype/StillImage"/>
    <dc:date>2024-02-20T12:08:39.993894</dc:date>
    <dc:format>image/svg+xml</dc:format>
    <dc:creator>
     <cc:Agent>
      <dc:title>Matplotlib v3.7.1, https://matplotlib.org/</dc:title>
     </cc:Agent>
    </dc:creator>
   </cc:Work>
  </rdf:RDF>
 </metadata>
 <defs>
  <style type="text/css">*{stroke-linejoin: round; stroke-linecap: butt}</style>
 </defs>
 <g id="figure_1">
  <g id="patch_1">
   <path d="M 0 229.565469 
L 246.151406 229.565469 
L 246.151406 0 
L 0 0 
z
" style="fill: #ffffff"/>
  </g>
  <g id="axes_1">
   <g id="patch_2">
    <path d="M 49.26 190.958906 
L 230.61 190.958906 
L 230.61 10.778906 
L 49.26 10.778906 
z
" style="fill: #ffffff"/>
   </g>
   <g id="matplotlib.axis_1">
    <g id="xtick_1">
     <g id="line2d_1">
      <defs>
       <path id="m71133ba7bf" d="M 0 0 
L 0 3.5 
" style="stroke: #000000; stroke-width: 0.8"/>
      </defs>
      <g>
       <use xlink:href="#m71133ba7bf" x="49.26" y="190.958906" style="stroke: #000000; stroke-width: 0.8"/>
      </g>
     </g>
     <g id="text_1">
      <text style="font: 10px 'Arial', serif; text-anchor: middle" x="49.26" y="205.116719" transform="rotate(-0 49.26 205.116719)">60</text>
     </g>
    </g>
    <g id="xtick_2">
     <g id="line2d_2">
      <g>
       <use xlink:href="#m71133ba7bf" x="75.167143" y="190.958906" style="stroke: #000000; stroke-width: 0.8"/>
      </g>
     </g>
     <g id="text_2">
      <text style="font: 10px 'Arial', serif; text-anchor: middle" x="75.167143" y="205.116719" transform="rotate(-0 75.167143 205.116719)">100</text>
     </g>
    </g>
    <g id="xtick_3">
     <g id="line2d_3">
      <g>
       <use xlink:href="#m71133ba7bf" x="101.074286" y="190.958906" style="stroke: #000000; stroke-width: 0.8"/>
      </g>
     </g>
     <g id="text_3">
      <text style="font: 10px 'Arial', serif; text-anchor: middle" x="101.074286" y="205.116719" transform="rotate(-0 101.074286 205.116719)">140</text>
     </g>
    </g>
    <g id="xtick_4">
     <g id="line2d_4">
      <g>
       <use xlink:href="#m71133ba7bf" x="126.981429" y="190.958906" style="stroke: #000000; stroke-width: 0.8"/>
      </g>
     </g>
     <g id="text_4">
      <text style="font: 10px 'Arial', serif; text-anchor: middle" x="126.981429" y="205.116719" transform="rotate(-0 126.981429 205.116719)">180</text>
     </g>
    </g>
    <g id="xtick_5">
     <g id="line2d_5">
      <g>
       <use xlink:href="#m71133ba7bf" x="152.888571" y="190.958906" style="stroke: #000000; stroke-width: 0.8"/>
      </g>
     </g>
     <g id="text_5">
      <text style="font: 10px 'Arial', serif; text-anchor: middle" x="152.888571" y="205.116719" transform="rotate(-0 152.888571 205.116719)">220</text>
     </g>
    </g>
    <g id="xtick_6">
     <g id="line2d_6">
      <g>
       <use xlink:href="#m71133ba7bf" x="178.795714" y="190.958906" style="stroke: #000000; stroke-width: 0.8"/>
      </g>
     </g>
     <g id="text_6">
      <text style="font: 10px 'Arial', serif; text-anchor: middle" x="178.795714" y="205.116719" transform="rotate(-0 178.795714 205.116719)">260</text>
     </g>
    </g>
    <g id="xtick_7">
     <g id="line2d_7">
      <g>
       <use xlink:href="#m71133ba7bf" x="204.702857" y="190.958906" style="stroke: #000000; stroke-width: 0.8"/>
      </g>
     </g>
     <g id="text_7">
      <text style="font: 10px 'Arial', serif; text-anchor: middle" x="204.702857" y="205.116719" transform="rotate(-0 204.702857 205.116719)">300</text>
     </g>
    </g>
    <g id="xtick_8">
     <g id="line2d_8">
      <g>
       <use xlink:href="#m71133ba7bf" x="230.61" y="190.958906" style="stroke: #000000; stroke-width: 0.8"/>
      </g>
     </g>
     <g id="text_8">
      <text style="font: 10px 'Arial', serif; text-anchor: middle" x="230.61" y="205.116719" transform="rotate(-0 230.61 205.116719)">340</text>
     </g>
    </g>
    <g id="text_9">
     <text style="font: 12px 'Arial', serif; text-anchor: middle" x="139.935" y="219.839844" transform="rotate(-0 139.935 219.839844)">Brine salinity (g/L)</text>
    </g>
   </g>
   <g id="matplotlib.axis_2">
    <g id="ytick_1">
     <g id="line2d_9">
      <defs>
       <path id="me0002f4ead" d="M 0 0 
L -3.5 0 
" style="stroke: #000000; stroke-width: 0.8"/>
      </defs>
      <g>
       <use xlink:href="#me0002f4ead" x="49.26" y="190.958906" style="stroke: #000000; stroke-width: 0.8"/>
      </g>
     </g>
     <g id="text_10">
      <text style="font: 10px 'Arial', serif; text-anchor: end" x="42.26" y="194.537812" transform="rotate(-0 42.26 194.537812)">0.0</text>
     </g>
    </g>
    <g id="ytick_2">
     <g id="line2d_10">
      <g>
       <use xlink:href="#me0002f4ead" x="49.26" y="145.913906" style="stroke: #000000; stroke-width: 0.8"/>
      </g>
     </g>
     <g id="text_11">
      <text style="font: 10px 'Arial', serif; text-anchor: end" x="42.26" y="149.492812" transform="rotate(-0 42.26 149.492812)">0.5</text>
     </g>
    </g>
    <g id="ytick_3">
     <g id="line2d_11">
      <g>
       <use xlink:href="#me0002f4ead" x="49.26" y="100.868906" style="stroke: #000000; stroke-width: 0.8"/>
      </g>
     </g>
     <g id="text_12">
      <text style="font: 10px 'Arial', serif; text-anchor: end" x="42.26" y="104.447812" transform="rotate(-0 42.26 104.447812)">1.0</text>
     </g>
    </g>
    <g id="ytick_4">
     <g id="line2d_12">
      <g>
       <use xlink:href="#me0002f4ead" x="49.26" y="55.823906" style="stroke: #000000; stroke-width: 0.8"/>
      </g>
     </g>
     <g id="text_13">
      <text style="font: 10px 'Arial', serif; text-anchor: end" x="42.26" y="59.402812" transform="rotate(-0 42.26 59.402812)">1.5</text>
     </g>
    </g>
    <g id="ytick_5">
     <g id="line2d_13">
      <g>
       <use xlink:href="#me0002f4ead" x="49.26" y="10.778906" style="stroke: #000000; stroke-width: 0.8"/>
      </g>
     </g>
     <g id="text_14">
      <text style="font: 10px 'Arial', serif; text-anchor: end" x="42.26" y="14.357812" transform="rotate(-0 42.26 14.357812)">2.0</text>
     </g>
    </g>
    <g id="text_15">
     <!-- LCOW ($\$$/$m^3$) -->
     <g transform="translate(21.72 137.288906) rotate(-90)">
      <text>
       <tspan style="font: 12px 'Arial'" x="0 6.673828 15.339844 24.673828 36 39.333984 43.330078 50.003906 53.337891 68.81212" y="-0.5992500000000014">LCOW ($/m)</tspan>
       <tspan style="font: 8.4px 'Arial'" x="63.543066" y="-8.9625">3</tspan>
      </text>
     </g>
    </g>
   </g>
   <g id="patch_3">
    <path d="M 49.26 190.958906 
L 49.26 10.778906 
" style="fill: none; stroke: #000000; stroke-width: 0.8; stroke-linejoin: miter; stroke-linecap: square"/>
   </g>
   <g id="patch_4">
    <path d="M 230.61 190.958906 
L 230.61 10.778906 
" style="fill: none; stroke: #000000; stroke-width: 0.8; stroke-linejoin: miter; stroke-linecap: square"/>
   </g>
   <g id="patch_5">
    <path d="M 49.26 190.958906 
L 230.61 190.958906 
" style="fill: none; stroke: #000000; stroke-width: 0.8; stroke-linejoin: miter; stroke-linecap: square"/>
   </g>
   <g id="patch_6">
    <path d="M 49.26 10.778906 
L 230.61 10.778906 
" style="fill: none; stroke: #000000; stroke-width: 0.8; stroke-linejoin: miter; stroke-linecap: square"/>
   </g>
   <g id="PolyCollection_1"/>
   <g id="PolyCollection_2"/>
   <g id="PolyCollection_3">
    <path d="M 59.115164 190.958906 
L 59.115164 188.04015 
L 60.154733 188.064432 
L 61.239487 188.087496 
L 62.372417 188.109267 
L 63.556778 188.12965 
L 64.796125 188.148527 
L 66.094343 188.165757 
L 67.455684 188.181168 
L 68.884816 188.194556 
L 70.386869 188.205675 
L 71.967495 188.214233 
L 73.632931 188.219882 
L 75.360901 188.035862 
L 77.08142 187.228566 
L 78.839864 186.105206 
L 80.621461 184.570403 
L 83.532434 187.437983 
L 85.945748 187.504039 
L 88.471442 187.29953 
L 91.176371 187.11166 
L 94.066676 186.857864 
L 97.166923 186.563036 
L 100.499752 186.216574 
L 104.090712 185.804052 
L 107.96844 185.305399 
L 112.164533 184.691907 
L 116.712625 183.921116 
L 121.645461 182.927575 
L 127.491137 183.363408 
L 133.564856 182.461647 
L 140.225571 181.238831 
L 147.488165 179.489785 
L 156.324904 179.361523 
L 165.520145 177.251558 
L 176.46961 175.888525 
L 188.300542 172.747782 
L 203.001895 168.951256 
L 203.001895 190.958906 
L 203.001895 190.958906 
L 188.300542 190.958906 
L 176.46961 190.958906 
L 165.520145 190.958906 
L 156.324904 190.958906 
L 147.488165 190.958906 
L 140.225571 190.958906 
L 133.564856 190.958906 
L 127.491137 190.958906 
L 121.645461 190.958906 
L 116.712625 190.958906 
L 112.164533 190.958906 
L 107.96844 190.958906 
L 104.090712 190.958906 
L 100.499752 190.958906 
L 97.166923 190.958906 
L 94.066676 190.958906 
L 91.176371 190.958906 
L 88.471442 190.958906 
L 85.945748 190.958906 
L 83.532434 190.958906 
L 80.621461 190.958906 
L 78.839864 190.958906 
L 77.08142 190.958906 
L 75.360901 190.958906 
L 73.632931 190.958906 
L 71.967495 190.958906 
L 70.386869 190.958906 
L 68.884816 190.958906 
L 67.455684 190.958906 
L 66.094343 190.958906 
L 64.796125 190.958906 
L 63.556778 190.958906 
L 62.372417 190.958906 
L 61.239487 190.958906 
L 60.154733 190.958906 
L 59.115164 190.958906 
z
" clip-path="url(#p2992d39095)" style="fill: #a6cee3; stroke: #000000"/>
   </g>
   <g id="PolyCollection_4"/>
   <g id="PolyCollection_5">
    <path d="M 59.115164 188.04015 
L 59.115164 184.975455 
L 60.154733 185.025234 
L 61.239487 185.072516 
L 62.372417 185.117146 
L 63.556778 185.158931 
L 64.796125 185.197629 
L 66.094343 185.23295 
L 67.455684 185.264543 
L 68.884816 185.291989 
L 70.386869 185.314782 
L 71.967495 185.332326 
L 73.632931 185.343906 
L 75.360901 184.966666 
L 77.08142 183.311708 
L 78.839864 181.008821 
L 80.621461 177.862475 
L 83.532434 183.741013 
L 85.945748 183.876429 
L 88.471442 183.457184 
L 91.176371 183.072052 
L 94.066676 182.551769 
L 97.166923 181.947373 
L 100.499752 181.237125 
L 104.090712 180.391454 
L 107.96844 179.369216 
L 112.164533 178.111558 
L 116.712625 176.531436 
L 121.645461 174.494677 
L 127.491137 175.388135 
L 133.564856 173.539526 
L 140.225571 171.032752 
L 147.488165 167.447207 
L 156.324904 167.184271 
L 165.520145 162.858842 
L 176.46961 160.064624 
L 188.300542 153.626102 
L 203.001895 145.843223 
L 203.001895 168.951256 
L 203.001895 168.951256 
L 188.300542 172.747782 
L 176.46961 175.888525 
L 165.520145 177.251558 
L 156.324904 179.361523 
L 147.488165 179.489785 
L 140.225571 181.238831 
L 133.564856 182.461647 
L 127.491137 183.363408 
L 121.645461 182.927575 
L 116.712625 183.921116 
L 112.164533 184.691907 
L 107.96844 185.305399 
L 104.090712 185.804052 
L 100.499752 186.216574 
L 97.166923 186.563036 
L 94.066676 186.857864 
L 91.176371 187.11166 
L 88.471442 187.29953 
L 85.945748 187.504039 
L 83.532434 187.437983 
L 80.621461 184.570403 
L 78.839864 186.105206 
L 77.08142 187.228566 
L 75.360901 188.035862 
L 73.632931 188.219882 
L 71.967495 188.214233 
L 70.386869 188.205675 
L 68.884816 188.194556 
L 67.455684 188.181168 
L 66.094343 188.165757 
L 64.796125 188.148527 
L 63.556778 188.12965 
L 62.372417 188.109267 
L 61.239487 188.087496 
L 60.154733 188.064432 
L 59.115164 188.04015 
z
" clip-path="url(#p2992d39095)" style="fill: url(#hfb150d38b0); stroke: #000000"/>
   </g>
   <g id="PolyCollection_6"/>
   <g id="PolyCollection_7">
    <path d="M 59.115164 184.975455 
L 59.115164 168.411175 
L 60.154733 168.513982 
L 61.239487 168.599077 
L 62.372417 168.666251 
L 63.556778 168.715177 
L 64.796125 168.745407 
L 66.094343 168.75636 
L 67.455684 168.747311 
L 68.884816 168.717379 
L 70.386869 168.665501 
L 71.967495 168.590418 
L 73.632931 168.490642 
L 75.360901 168.109488 
L 77.08142 166.739841 
L 78.839864 164.712761 
L 80.621461 161.833013 
L 83.532434 161.094736 
L 85.945748 160.819644 
L 88.471442 160.392384 
L 91.176371 159.926463 
L 94.066676 159.315194 
L 97.166923 158.563186 
L 100.499752 157.638408 
L 104.090712 156.497984 
L 107.96844 155.083497 
L 112.164533 153.313682 
L 116.712625 151.072746 
L 121.645461 148.191026 
L 127.491137 145.47226 
L 133.564856 142.674939 
L 140.225571 138.971154 
L 147.488165 133.889681 
L 156.324904 129.433486 
L 165.520145 122.993361 
L 176.46961 115.353788 
L 188.300542 105.520863 
L 203.001895 91.327622 
L 203.001895 145.843223 
L 203.001895 145.843223 
L 188.300542 153.626102 
L 176.46961 160.064624 
L 165.520145 162.858842 
L 156.324904 167.184271 
L 147.488165 167.447207 
L 140.225571 171.032752 
L 133.564856 173.539526 
L 127.491137 175.388135 
L 121.645461 174.494677 
L 116.712625 176.531436 
L 112.164533 178.111558 
L 107.96844 179.369216 
L 104.090712 180.391454 
L 100.499752 181.237125 
L 97.166923 181.947373 
L 94.066676 182.551769 
L 91.176371 183.072052 
L 88.471442 183.457184 
L 85.945748 183.876429 
L 83.532434 183.741013 
L 80.621461 177.862475 
L 78.839864 181.008821 
L 77.08142 183.311708 
L 75.360901 184.966666 
L 73.632931 185.343906 
L 71.967495 185.332326 
L 70.386869 185.314782 
L 68.884816 185.291989 
L 67.455684 185.264543 
L 66.094343 185.23295 
L 64.796125 185.197629 
L 63.556778 185.158931 
L 62.372417 185.117146 
L 61.239487 185.072516 
L 60.154733 185.025234 
L 59.115164 184.975455 
z
" clip-path="url(#p2992d39095)" style="fill: #1f78b4; stroke: #000000"/>
   </g>
   <g id="PolyCollection_8"/>
   <g id="PolyCollection_9">
    <path d="M 59.115164 168.411175 
L 59.115164 142.576559 
L 60.154733 142.522284 
L 61.239487 142.427341 
L 62.372417 142.290801 
L 63.556778 142.111492 
L 64.796125 141.887988 
L 66.094343 141.618586 
L 67.455684 141.301281 
L 68.884816 140.933741 
L 70.386869 140.51327 
L 71.967495 140.036765 
L 73.632931 139.500672 
L 75.360901 138.880851 
L 77.08142 137.809196 
L 78.839864 136.058155 
L 80.621461 133.417748 
L 83.532434 129.070231 
L 85.945748 128.424557 
L 88.471442 127.717569 
L 91.176371 126.877137 
L 94.066676 125.896384 
L 97.166923 124.715877 
L 100.499752 123.290683 
L 104.090712 121.561457 
L 107.96844 119.448597 
L 112.164533 116.843555 
L 116.712625 113.595753 
L 121.645461 109.492833 
L 127.491137 104.251001 
L 133.564856 99.91824 
L 140.225571 94.384412 
L 147.488165 87.115263 
L 156.324904 78.772106 
L 165.520145 69.217728 
L 176.46961 56.507891 
L 188.300542 41.814886 
L 203.001895 19.026659 
L 203.001895 91.327622 
L 203.001895 91.327622 
L 188.300542 105.520863 
L 176.46961 115.353788 
L 165.520145 122.993361 
L 156.324904 129.433486 
L 147.488165 133.889681 
L 140.225571 138.971154 
L 133.564856 142.674939 
L 127.491137 145.47226 
L 121.645461 148.191026 
L 116.712625 151.072746 
L 112.164533 153.313682 
L 107.96844 155.083497 
L 104.090712 156.497984 
L 100.499752 157.638408 
L 97.166923 158.563186 
L 94.066676 159.315194 
L 91.176371 159.926463 
L 88.471442 160.392384 
L 85.945748 160.819644 
L 83.532434 161.094736 
L 80.621461 161.833013 
L 78.839864 164.712761 
L 77.08142 166.739841 
L 75.360901 168.109488 
L 73.632931 168.490642 
L 71.967495 168.590418 
L 70.386869 168.665501 
L 68.884816 168.717379 
L 67.455684 168.747311 
L 66.094343 168.75636 
L 64.796125 168.745407 
L 63.556778 168.715177 
L 62.372417 168.666251 
L 61.239487 168.599077 
L 60.154733 168.513982 
L 59.115164 168.411175 
z
" clip-path="url(#p2992d39095)" style="fill: url(#hb3a0539149); stroke: #000000"/>
   </g>
   <g id="PolyCollection_10"/>
   <g id="line2d_14">
    <path d="M 59.115164 142.577147 
L 60.154733 142.522869 
L 61.239487 142.427924 
L 62.372417 142.291383 
L 63.556778 142.112073 
L 64.796125 141.888568 
L 66.094343 141.619165 
L 67.455684 141.301861 
L 68.884816 140.934322 
L 70.386869 140.513852 
L 71.967495 140.03735 
L 73.632931 139.50126 
L 75.360901 138.881447 
L 77.08142 137.809819 
L 78.839864 136.05882 
L 80.621461 133.418473 
L 83.532434 129.071014 
L 85.945748 128.425348 
L 88.471442 127.71837 
L 91.176371 126.877948 
L 94.066676 125.897209 
L 97.166923 124.716719 
L 100.499752 123.291546 
L 104.090712 121.562346 
L 107.96844 119.449519 
L 112.164533 116.844518 
L 116.712625 113.596768 
L 121.645461 109.493915 
L 127.491137 104.252164 
L 133.564856 99.919469 
L 140.225571 94.385728 
L 147.488165 87.116697 
L 156.324904 78.773662 
L 165.520145 69.219435 
L 176.46961 56.509792 
L 188.300542 41.817019 
L 203.001895 19.029137 
" clip-path="url(#p2992d39095)" style="fill: none; stroke: #000000; stroke-width: 1.5; stroke-linecap: square"/>
   </g>
   <g id="line2d_15">
    <defs>
     <path id="m7521b8feec" d="M 0 2.5 
C 0.663008 2.5 1.29895 2.236584 1.767767 1.767767 
C 2.236584 1.29895 2.5 0.663008 2.5 0 
C 2.5 -0.663008 2.236584 -1.29895 1.767767 -1.767767 
C 1.29895 -2.236584 0.663008 -2.5 0 -2.5 
C -0.663008 -2.5 -1.29895 -2.236584 -1.767767 -1.767767 
C -2.236584 -1.29895 -2.5 -0.663008 -2.5 0 
C -2.5 0.663008 -2.236584 1.29895 -1.767767 1.767767 
C -1.29895 2.236584 -0.663008 2.5 0 2.5 
z
" style="stroke: #000000"/>
    </defs>
    <g clip-path="url(#p2992d39095)">
     <use xlink:href="#m7521b8feec" x="59.115164" y="142.577147" style="fill: #ffffff; stroke: #000000"/>
     <use xlink:href="#m7521b8feec" x="60.154733" y="142.522869" style="fill: #ffffff; stroke: #000000"/>
     <use xlink:href="#m7521b8feec" x="61.239487" y="142.427924" style="fill: #ffffff; stroke: #000000"/>
     <use xlink:href="#m7521b8feec" x="62.372417" y="142.291383" style="fill: #ffffff; stroke: #000000"/>
     <use xlink:href="#m7521b8feec" x="63.556778" y="142.112073" style="fill: #ffffff; stroke: #000000"/>
     <use xlink:href="#m7521b8feec" x="64.796125" y="141.888568" style="fill: #ffffff; stroke: #000000"/>
     <use xlink:href="#m7521b8feec" x="66.094343" y="141.619165" style="fill: #ffffff; stroke: #000000"/>
     <use xlink:href="#m7521b8feec" x="67.455684" y="141.301861" style="fill: #ffffff; stroke: #000000"/>
     <use xlink:href="#m7521b8feec" x="68.884816" y="140.934322" style="fill: #ffffff; stroke: #000000"/>
     <use xlink:href="#m7521b8feec" x="70.386869" y="140.513852" style="fill: #ffffff; stroke: #000000"/>
     <use xlink:href="#m7521b8feec" x="71.967495" y="140.03735" style="fill: #ffffff; stroke: #000000"/>
     <use xlink:href="#m7521b8feec" x="73.632931" y="139.50126" style="fill: #ffffff; stroke: #000000"/>
     <use xlink:href="#m7521b8feec" x="75.360901" y="138.881447" style="fill: #ffffff; stroke: #000000"/>
     <use xlink:href="#m7521b8feec" x="77.08142" y="137.809819" style="fill: #ffffff; stroke: #000000"/>
     <use xlink:href="#m7521b8feec" x="78.839864" y="136.05882" style="fill: #ffffff; stroke: #000000"/>
     <use xlink:href="#m7521b8feec" x="80.621461" y="133.418473" style="fill: #ffffff; stroke: #000000"/>
    </g>
   </g>
   <g id="line2d_16">
    <defs>
     <path id="m934258c683" d="M 0 3.535534 
L 2.12132 0 
L 0 -3.535534 
L -2.12132 0 
z
" style="stroke: #000000; stroke-linejoin: miter"/>
    </defs>
    <g clip-path="url(#p2992d39095)">
     <use xlink:href="#m934258c683" x="83.532434" y="129.071014" style="fill: #ffffff; stroke: #000000; stroke-linejoin: miter"/>
     <use xlink:href="#m934258c683" x="85.945748" y="128.425348" style="fill: #ffffff; stroke: #000000; stroke-linejoin: miter"/>
     <use xlink:href="#m934258c683" x="88.471442" y="127.71837" style="fill: #ffffff; stroke: #000000; stroke-linejoin: miter"/>
     <use xlink:href="#m934258c683" x="91.176371" y="126.877948" style="fill: #ffffff; stroke: #000000; stroke-linejoin: miter"/>
     <use xlink:href="#m934258c683" x="94.066676" y="125.897209" style="fill: #ffffff; stroke: #000000; stroke-linejoin: miter"/>
     <use xlink:href="#m934258c683" x="97.166923" y="124.716719" style="fill: #ffffff; stroke: #000000; stroke-linejoin: miter"/>
     <use xlink:href="#m934258c683" x="100.499752" y="123.291546" style="fill: #ffffff; stroke: #000000; stroke-linejoin: miter"/>
     <use xlink:href="#m934258c683" x="104.090712" y="121.562346" style="fill: #ffffff; stroke: #000000; stroke-linejoin: miter"/>
     <use xlink:href="#m934258c683" x="107.96844" y="119.449519" style="fill: #ffffff; stroke: #000000; stroke-linejoin: miter"/>
     <use xlink:href="#m934258c683" x="112.164533" y="116.844518" style="fill: #ffffff; stroke: #000000; stroke-linejoin: miter"/>
     <use xlink:href="#m934258c683" x="116.712625" y="113.596768" style="fill: #ffffff; stroke: #000000; stroke-linejoin: miter"/>
     <use xlink:href="#m934258c683" x="121.645461" y="109.493915" style="fill: #ffffff; stroke: #000000; stroke-linejoin: miter"/>
    </g>
   </g>
   <g id="line2d_17">
    <defs>
     <path id="m494107c812" d="M -2.5 2.5 
L 2.5 2.5 
L 2.5 -2.5 
L -2.5 -2.5 
z
" style="stroke: #000000; stroke-linejoin: miter"/>
    </defs>
    <g clip-path="url(#p2992d39095)">
     <use xlink:href="#m494107c812" x="127.491137" y="104.252164" style="fill: #ffffff; stroke: #000000; stroke-linejoin: miter"/>
     <use xlink:href="#m494107c812" x="133.564856" y="99.919469" style="fill: #ffffff; stroke: #000000; stroke-linejoin: miter"/>
     <use xlink:href="#m494107c812" x="140.225571" y="94.385728" style="fill: #ffffff; stroke: #000000; stroke-linejoin: miter"/>
     <use xlink:href="#m494107c812" x="147.488165" y="87.116697" style="fill: #ffffff; stroke: #000000; stroke-linejoin: miter"/>
    </g>
   </g>
   <g id="line2d_18">
    <defs>
     <path id="m7f284cf40b" d="M 2.5 0 
L -2.5 -2.5 
L -2.5 2.5 
z
" style="stroke: #000000; stroke-linejoin: miter"/>
    </defs>
    <g clip-path="url(#p2992d39095)">
     <use xlink:href="#m7f284cf40b" x="156.324904" y="78.773662" style="fill: #ffffff; stroke: #000000; stroke-linejoin: miter"/>
     <use xlink:href="#m7f284cf40b" x="165.520145" y="69.219435" style="fill: #ffffff; stroke: #000000; stroke-linejoin: miter"/>
    </g>
   </g>
   <g id="line2d_19">
    <defs>
     <path id="m02511d3c5b" d="M -2.5 -0 
L 2.5 2.5 
L 2.5 -2.5 
z
" style="stroke: #000000; stroke-linejoin: miter"/>
    </defs>
    <g clip-path="url(#p2992d39095)">
     <use xlink:href="#m02511d3c5b" x="176.46961" y="56.509792" style="fill: #ffffff; stroke: #000000; stroke-linejoin: miter"/>
     <use xlink:href="#m02511d3c5b" x="188.300542" y="41.817019" style="fill: #ffffff; stroke: #000000; stroke-linejoin: miter"/>
     <use xlink:href="#m02511d3c5b" x="203.001895" y="19.029137" style="fill: #ffffff; stroke: #000000; stroke-linejoin: miter"/>
    </g>
   </g>
   <g id="legend_1">
    <g id="patch_7">
     <path d="M 143.281875 96.003281 
L 152.281875 96.003281 
L 152.281875 87.948281 
L 143.281875 87.948281 
z
" style="fill: #ffffff; stroke: #000000; stroke-linejoin: miter"/>
    </g>
    <g id="text_16">
     <text style="font: 9px 'Arial', serif; text-anchor: start" x="159.481875" y="95.058281" transform="rotate(-0 159.481875 95.058281)">CAPEX</text>
    </g>
    <g id="patch_8">
     <path d="M 143.281875 106.702031 
L 152.281875 106.702031 
L 152.281875 98.647031 
L 143.281875 98.647031 
z
" style="fill: url(#h013c039f15); stroke: #000000; stroke-linejoin: miter"/>
    </g>
    <g id="text_17">
     <text style="font: 9px 'Arial', serif; text-anchor: start" x="159.481875" y="105.757031" transform="rotate(-0 159.481875 105.757031)">OPEX</text>
    </g>
    <g id="patch_9">
     <path d="M 143.281875 117.400781 
L 152.281875 117.400781 
L 152.281875 109.345781 
L 143.281875 109.345781 
z
" style="fill: #a6cee3; stroke: #000000; stroke-linejoin: miter"/>
    </g>
    <g id="text_18">
     <text style="font: 9px 'Arial', serif; text-anchor: start" x="159.481875" y="116.455781" transform="rotate(-0 159.481875 116.455781)">RO</text>
    </g>
    <g id="patch_10">
     <path d="M 143.281875 128.099531 
L 152.281875 128.099531 
L 152.281875 120.044531 
L 143.281875 120.044531 
z
" style="fill: #1f78b4; stroke: #000000; stroke-linejoin: miter"/>
    </g>
    <g id="text_19">
     <text style="font: 9px 'Arial', serif; text-anchor: start" x="159.481875" y="127.154531" transform="rotate(-0 159.481875 127.154531)">Pumps</text>
    </g>
    <g id="line2d_20">
     <g>
      <use xlink:href="#m7521b8feec" x="147.781875" y="134.298281" style="fill: #ffffff; stroke: #000000"/>
     </g>
    </g>
    <g id="text_20">
     <text style="font: 9px 'Arial', serif; text-anchor: start" x="159.481875" y="137.853281" transform="rotate(-0 159.481875 137.853281)">RO</text>
    </g>
    <g id="line2d_21">
     <g>
      <use xlink:href="#m934258c683" x="147.781875" y="144.997031" style="fill: #ffffff; stroke: #000000; stroke-linejoin: miter"/>
     </g>
    </g>
    <g id="text_21">
     <text style="font: 9px 'Arial', serif; text-anchor: start" x="159.481875" y="148.552031" transform="rotate(-0 159.481875 148.552031)">1 stage LSRRO</text>
    </g>
    <g id="line2d_22">
     <g>
      <use xlink:href="#m494107c812" x="147.781875" y="155.80125" style="fill: #ffffff; stroke: #000000; stroke-linejoin: miter"/>
     </g>
    </g>
    <g id="text_22">
     <text style="font: 9px 'Arial', serif; text-anchor: start" x="159.481875" y="159.35625" transform="rotate(-0 159.481875 159.35625)">2 stage LSRRO</text>
    </g>
    <g id="line2d_23">
     <g>
      <use xlink:href="#m7f284cf40b" x="147.781875" y="166.605469" style="fill: #ffffff; stroke: #000000; stroke-linejoin: miter"/>
     </g>
    </g>
    <g id="text_23">
     <text style="font: 9px 'Arial', serif; text-anchor: start" x="159.481875" y="170.160469" transform="rotate(-0 159.481875 170.160469)">3 stage LSRRO</text>
    </g>
    <g id="line2d_24">
     <g>
      <use xlink:href="#m02511d3c5b" x="147.781875" y="177.409687" style="fill: #ffffff; stroke: #000000; stroke-linejoin: miter"/>
     </g>
    </g>
    <g id="text_24">
     <text style="font: 9px 'Arial', serif; text-anchor: start" x="159.481875" y="180.964687" transform="rotate(-0 159.481875 180.964687)">4 stage LSRRO</text>
    </g>
   </g>
  </g>
 </g>
 <defs>
  <clipPath id="p2992d39095">
   <rect x="49.26" y="10.778906" width="181.35" height="180.18"/>
  </clipPath>
 </defs>
 <defs>
  <pattern id="hfb150d38b0" patternUnits="userSpaceOnUse" x="0" y="0" width="72" height="72">
   <rect x="0" y="0" width="73" height="73" fill="#a6cee3"/>
   <path d="M -36 36 
L 36 -36 
M -30 42 
L 42 -30 
M -24 48 
L 48 -24 
M -18 54 
L 54 -18 
M -12 60 
L 60 -12 
M -6 66 
L 66 -6 
M 0 72 
L 72 0 
M 6 78 
L 78 6 
M 12 84 
L 84 12 
M 18 90 
L 90 18 
M 24 96 
L 96 24 
M 30 102 
L 102 30 
M 36 108 
L 108 36 
" style="fill: #000000; stroke: #000000; stroke-width: 1.0; stroke-linecap: butt; stroke-linejoin: miter"/>
  </pattern>
  <pattern id="hb3a0539149" patternUnits="userSpaceOnUse" x="0" y="0" width="72" height="72">
   <rect x="0" y="0" width="73" height="73" fill="#1f78b4"/>
   <path d="M -36 36 
L 36 -36 
M -30 42 
L 42 -30 
M -24 48 
L 48 -24 
M -18 54 
L 54 -18 
M -12 60 
L 60 -12 
M -6 66 
L 66 -6 
M 0 72 
L 72 0 
M 6 78 
L 78 6 
M 12 84 
L 84 12 
M 18 90 
L 90 18 
M 24 96 
L 96 24 
M 30 102 
L 102 30 
M 36 108 
L 108 36 
" style="fill: #000000; stroke: #000000; stroke-width: 1.0; stroke-linecap: butt; stroke-linejoin: miter"/>
  </pattern>
  <pattern id="h013c039f15" patternUnits="userSpaceOnUse" x="0" y="0" width="72" height="72">
   <rect x="0" y="0" width="73" height="73" fill="#ffffff"/>
   <path d="M -36 36 
L 36 -36 
M -30 42 
L 42 -30 
M -24 48 
L 48 -24 
M -18 54 
L 54 -18 
M -12 60 
L 60 -12 
M -6 66 
L 66 -6 
M 0 72 
L 72 0 
M 6 78 
L 78 6 
M 12 84 
L 84 12 
M 18 90 
L 90 18 
M 24 96 
L 96 24 
M 30 102 
L 102 30 
M 36 108 
L 108 36 
" style="fill: #000000; stroke: #000000; stroke-width: 1.0; stroke-linecap: butt; stroke-linejoin: miter"/>
  </pattern>
 </defs>
</svg>
