<?xml version="1.0" encoding="utf-8" standalone="no"?>
<!DOCTYPE svg PUBLIC "-//W3C//DTD SVG 1.1//EN"
  "http://www.w3.org/Graphics/SVG/1.1/DTD/svg11.dtd">
<svg xmlns:xlink="http://www.w3.org/1999/xlink" width="243.370937pt" height="229.565469pt" viewBox="0 0 243.370937 229.565469" xmlns="http://www.w3.org/2000/svg" version="1.1">
 <metadata>
  <rdf:RDF xmlns:dc="http://purl.org/dc/elements/1.1/" xmlns:cc="http://creativecommons.org/ns#" xmlns:rdf="http://www.w3.org/1999/02/22-rdf-syntax-ns#">
   <cc:Work>
    <dc:type rdf:resource="http://purl.org/dc/dcmitype/StillImage"/>
    <dc:date>2024-02-18T14:52:56.143494</dc:date>
    <dc:format>image/svg+xml</dc:format>
    <dc:creator>
     <cc:Agent>
      <dc:title>Matplotlib v3.7.1, https://matplotlib.org/</dc:title>
     </cc:Agent>
    </dc:creator>
   </cc:Work>
  </rdf:RDF>
 </metadata>
 <defs>
  <style type="text/css">*{stroke-linejoin: round; stroke-linecap: butt}</style>
 </defs>
 <g id="figure_1">
  <g id="patch_1">
   <path d="M 0 229.565469 
L 243.370937 229.565469 
L 243.370937 0 
L 0 0 
z
" style="fill: #ffffff"/>
  </g>
  <g id="axes_1">
   <g id="patch_2">
    <path d="M 49.26 190.958906 
L 230.61 190.958906 
L 230.61 10.778906 
L 49.26 10.778906 
z
" style="fill: #ffffff"/>
   </g>
   <g id="matplotlib.axis_1">
    <g id="xtick_1">
     <g id="line2d_1">
      <defs>
       <path id="maa51fae8f5" d="M 0 0 
L 0 3.5 
" style="stroke: #000000; stroke-width: 0.8"/>
      </defs>
      <g>
       <use xlink:href="#maa51fae8f5" x="49.26" y="190.958906" style="stroke: #000000; stroke-width: 0.8"/>
      </g>
     </g>
     <g id="text_1">
      <text style="font: 10px 'Arial', serif; text-anchor: middle" x="49.26" y="205.116719" transform="rotate(-0 49.26 205.116719)">50</text>
     </g>
    </g>
    <g id="xtick_2">
     <g id="line2d_2">
      <g>
       <use xlink:href="#maa51fae8f5" x="139.935" y="190.958906" style="stroke: #000000; stroke-width: 0.8"/>
      </g>
     </g>
     <g id="text_2">
      <text style="font: 10px 'Arial', serif; text-anchor: middle" x="139.935" y="205.116719" transform="rotate(-0 139.935 205.116719)">70</text>
     </g>
    </g>
    <g id="xtick_3">
     <g id="line2d_3">
      <g>
       <use xlink:href="#maa51fae8f5" x="185.2725" y="190.958906" style="stroke: #000000; stroke-width: 0.8"/>
      </g>
     </g>
     <g id="text_3">
      <text style="font: 10px 'Arial', serif; text-anchor: middle" x="185.2725" y="205.116719" transform="rotate(-0 185.2725 205.116719)">80</text>
     </g>
    </g>
    <g id="xtick_4">
     <g id="line2d_4">
      <g>
       <use xlink:href="#maa51fae8f5" x="230.61" y="190.958906" style="stroke: #000000; stroke-width: 0.8"/>
      </g>
     </g>
     <g id="text_4">
      <text style="font: 10px 'Arial', serif; text-anchor: middle" x="230.61" y="205.116719" transform="rotate(-0 230.61 205.116719)">90</text>
     </g>
    </g>
    <g id="text_5">
     <text style="font: 12px 'Arial', serif; text-anchor: middle" x="139.935" y="219.839844" transform="rotate(-0 139.935 219.839844)">Water recovery (%)</text>
    </g>
   </g>
   <g id="matplotlib.axis_2">
    <g id="ytick_1">
     <g id="line2d_5">
      <defs>
       <path id="m7374b2c0be" d="M 0 0 
L -3.5 0 
" style="stroke: #000000; stroke-width: 0.8"/>
      </defs>
      <g>
       <use xlink:href="#m7374b2c0be" x="49.26" y="190.958906" style="stroke: #000000; stroke-width: 0.8"/>
      </g>
     </g>
     <g id="text_6">
      <text style="font: 10px 'Arial', serif; text-anchor: end" x="42.26" y="194.537812" transform="rotate(-0 42.26 194.537812)">0.0</text>
     </g>
    </g>
    <g id="ytick_2">
     <g id="line2d_6">
      <g>
       <use xlink:href="#m7374b2c0be" x="49.26" y="145.913906" style="stroke: #000000; stroke-width: 0.8"/>
      </g>
     </g>
     <g id="text_7">
      <text style="font: 10px 'Arial', serif; text-anchor: end" x="42.26" y="149.492812" transform="rotate(-0 42.26 149.492812)">0.5</text>
     </g>
    </g>
    <g id="ytick_3">
     <g id="line2d_7">
      <g>
       <use xlink:href="#m7374b2c0be" x="49.26" y="100.868906" style="stroke: #000000; stroke-width: 0.8"/>
      </g>
     </g>
     <g id="text_8">
      <text style="font: 10px 'Arial', serif; text-anchor: end" x="42.26" y="104.447812" transform="rotate(-0 42.26 104.447812)">1.0</text>
     </g>
    </g>
    <g id="ytick_4">
     <g id="line2d_8">
      <g>
       <use xlink:href="#m7374b2c0be" x="49.26" y="55.823906" style="stroke: #000000; stroke-width: 0.8"/>
      </g>
     </g>
     <g id="text_9">
      <text style="font: 10px 'Arial', serif; text-anchor: end" x="42.26" y="59.402812" transform="rotate(-0 42.26 59.402812)">1.5</text>
     </g>
    </g>
    <g id="ytick_5">
     <g id="line2d_9">
      <g>
       <use xlink:href="#m7374b2c0be" x="49.26" y="10.778906" style="stroke: #000000; stroke-width: 0.8"/>
      </g>
     </g>
     <g id="text_10">
      <text style="font: 10px 'Arial', serif; text-anchor: end" x="42.26" y="14.357812" transform="rotate(-0 42.26 14.357812)">2.0</text>
     </g>
    </g>
    <g id="text_11">
     <!-- LCOW ($\$$/$m^3$) -->
     <g transform="translate(21.72 137.288906) rotate(-90)">
      <text>
       <tspan style="font: 12px 'Arial'" x="0 6.673828 15.339844 24.673828 36 39.333984 43.330078 50.003906 53.337891 68.81212" y="-0.5992500000000014">LCOW ($/m)</tspan>
       <tspan style="font: 8.4px 'Arial'" x="63.543066" y="-8.9625">3</tspan>
      </text>
     </g>
    </g>
   </g>
   <g id="patch_3">
    <path d="M 49.26 190.958906 
L 49.26 10.778906 
" style="fill: none; stroke: #000000; stroke-width: 0.8; stroke-linejoin: miter; stroke-linecap: square"/>
   </g>
   <g id="patch_4">
    <path d="M 230.61 190.958906 
L 230.61 10.778906 
" style="fill: none; stroke: #000000; stroke-width: 0.8; stroke-linejoin: miter; stroke-linecap: square"/>
   </g>
   <g id="patch_5">
    <path d="M 49.26 190.958906 
L 230.61 190.958906 
" style="fill: none; stroke: #000000; stroke-width: 0.8; stroke-linejoin: miter; stroke-linecap: square"/>
   </g>
   <g id="patch_6">
    <path d="M 49.26 10.778906 
L 230.61 10.778906 
" style="fill: none; stroke: #000000; stroke-width: 0.8; stroke-linejoin: miter; stroke-linecap: square"/>
   </g>
   <g id="PolyCollection_1"/>
   <g id="PolyCollection_2"/>
   <g id="PolyCollection_3">
    <path d="M 55.405553 190.958906 
L 55.405553 188.04015 
L 60.06161 188.064432 
L 64.717589 188.087496 
L 69.373482 188.109267 
L 74.02928 188.12965 
L 78.684971 188.148527 
L 83.340544 188.165757 
L 87.995983 188.181168 
L 92.651271 188.194556 
L 97.306389 188.205675 
L 101.961312 188.214233 
L 106.616013 188.219882 
L 111.265135 188.035862 
L 115.895361 187.228566 
L 120.514699 186.105206 
L 125.120181 184.570403 
L 129.889604 187.437983 
L 134.551768 187.504039 
L 139.206487 187.29953 
L 143.861807 187.11166 
L 148.515902 186.857864 
L 153.169315 186.563036 
L 157.821852 186.216574 
L 162.473237 185.804052 
L 167.123066 185.305399 
L 171.770719 184.691907 
L 176.415196 183.921116 
L 181.054784 182.927575 
L 185.735189 183.363408 
L 190.379975 182.461647 
L 195.017458 181.238831 
L 199.640691 179.489785 
L 204.315449 179.361523 
L 208.932708 177.251558 
L 213.580568 175.888525 
L 218.181567 172.747782 
L 222.835791 168.951256 
L 222.835791 190.958906 
L 222.835791 190.958906 
L 218.181567 190.958906 
L 213.580568 190.958906 
L 208.932708 190.958906 
L 204.315449 190.958906 
L 199.640691 190.958906 
L 195.017458 190.958906 
L 190.379975 190.958906 
L 185.735189 190.958906 
L 181.054784 190.958906 
L 176.415196 190.958906 
L 171.770719 190.958906 
L 167.123066 190.958906 
L 162.473237 190.958906 
L 157.821852 190.958906 
L 153.169315 190.958906 
L 148.515902 190.958906 
L 143.861807 190.958906 
L 139.206487 190.958906 
L 134.551768 190.958906 
L 129.889604 190.958906 
L 125.120181 190.958906 
L 120.514699 190.958906 
L 115.895361 190.958906 
L 111.265135 190.958906 
L 106.616013 190.958906 
L 101.961312 190.958906 
L 97.306389 190.958906 
L 92.651271 190.958906 
L 87.995983 190.958906 
L 83.340544 190.958906 
L 78.684971 190.958906 
L 74.02928 190.958906 
L 69.373482 190.958906 
L 64.717589 190.958906 
L 60.06161 190.958906 
L 55.405553 190.958906 
z
" clip-path="url(#pe945516ff2)" style="fill: #a6cee3; stroke: #000000"/>
   </g>
   <g id="PolyCollection_4"/>
   <g id="PolyCollection_5">
    <path d="M 55.405553 188.04015 
L 55.405553 184.975455 
L 60.06161 185.025234 
L 64.717589 185.072516 
L 69.373482 185.117146 
L 74.02928 185.158931 
L 78.684971 185.197629 
L 83.340544 185.23295 
L 87.995983 185.264543 
L 92.651271 185.291989 
L 97.306389 185.314782 
L 101.961312 185.332326 
L 106.616013 185.343906 
L 111.265135 184.966666 
L 115.895361 183.311708 
L 120.514699 181.008821 
L 125.120181 177.862475 
L 129.889604 183.741013 
L 134.551768 183.876429 
L 139.206487 183.457184 
L 143.861807 183.072052 
L 148.515902 182.551769 
L 153.169315 181.947373 
L 157.821852 181.237125 
L 162.473237 180.391454 
L 167.123066 179.369216 
L 171.770719 178.111558 
L 176.415196 176.531436 
L 181.054784 174.494677 
L 185.735189 175.388135 
L 190.379975 173.539526 
L 195.017458 171.032752 
L 199.640691 167.447207 
L 204.315449 167.184271 
L 208.932708 162.858842 
L 213.580568 160.064624 
L 218.181567 153.626102 
L 222.835791 145.843223 
L 222.835791 168.951256 
L 222.835791 168.951256 
L 218.181567 172.747782 
L 213.580568 175.888525 
L 208.932708 177.251558 
L 204.315449 179.361523 
L 199.640691 179.489785 
L 195.017458 181.238831 
L 190.379975 182.461647 
L 185.735189 183.363408 
L 181.054784 182.927575 
L 176.415196 183.921116 
L 171.770719 184.691907 
L 167.123066 185.305399 
L 162.473237 185.804052 
L 157.821852 186.216574 
L 153.169315 186.563036 
L 148.515902 186.857864 
L 143.861807 187.11166 
L 139.206487 187.29953 
L 134.551768 187.504039 
L 129.889604 187.437983 
L 125.120181 184.570403 
L 120.514699 186.105206 
L 115.895361 187.228566 
L 111.265135 188.035862 
L 106.616013 188.219882 
L 101.961312 188.214233 
L 97.306389 188.205675 
L 92.651271 188.194556 
L 87.995983 188.181168 
L 83.340544 188.165757 
L 78.684971 188.148527 
L 74.02928 188.12965 
L 69.373482 188.109267 
L 64.717589 188.087496 
L 60.06161 188.064432 
L 55.405553 188.04015 
z
" clip-path="url(#pe945516ff2)" style="fill: url(#h5fdebf3601); stroke: #000000"/>
   </g>
   <g id="PolyCollection_6"/>
   <g id="PolyCollection_7">
    <path d="M 55.405553 184.975455 
L 55.405553 168.411175 
L 60.06161 168.513982 
L 64.717589 168.599077 
L 69.373482 168.666251 
L 74.02928 168.715177 
L 78.684971 168.745407 
L 83.340544 168.75636 
L 87.995983 168.747311 
L 92.651271 168.717379 
L 97.306389 168.665501 
L 101.961312 168.590418 
L 106.616013 168.490642 
L 111.265135 168.109488 
L 115.895361 166.739841 
L 120.514699 164.712761 
L 125.120181 161.833013 
L 129.889604 161.094736 
L 134.551768 160.819644 
L 139.206487 160.392384 
L 143.861807 159.926463 
L 148.515902 159.315194 
L 153.169315 158.563186 
L 157.821852 157.638408 
L 162.473237 156.497984 
L 167.123066 155.083497 
L 171.770719 153.313682 
L 176.415196 151.072746 
L 181.054784 148.191026 
L 185.735189 145.47226 
L 190.379975 142.674939 
L 195.017458 138.971154 
L 199.640691 133.889681 
L 204.315449 129.433486 
L 208.932708 122.993361 
L 213.580568 115.353788 
L 218.181567 105.520863 
L 222.835791 91.327622 
L 222.835791 145.843223 
L 222.835791 145.843223 
L 218.181567 153.626102 
L 213.580568 160.064624 
L 208.932708 162.858842 
L 204.315449 167.184271 
L 199.640691 167.447207 
L 195.017458 171.032752 
L 190.379975 173.539526 
L 185.735189 175.388135 
L 181.054784 174.494677 
L 176.415196 176.531436 
L 171.770719 178.111558 
L 167.123066 179.369216 
L 162.473237 180.391454 
L 157.821852 181.237125 
L 153.169315 181.947373 
L 148.515902 182.551769 
L 143.861807 183.072052 
L 139.206487 183.457184 
L 134.551768 183.876429 
L 129.889604 183.741013 
L 125.120181 177.862475 
L 120.514699 181.008821 
L 115.895361 183.311708 
L 111.265135 184.966666 
L 106.616013 185.343906 
L 101.961312 185.332326 
L 97.306389 185.314782 
L 92.651271 185.291989 
L 87.995983 185.264543 
L 83.340544 185.23295 
L 78.684971 185.197629 
L 74.02928 185.158931 
L 69.373482 185.117146 
L 64.717589 185.072516 
L 60.06161 185.025234 
L 55.405553 184.975455 
z
" clip-path="url(#pe945516ff2)" style="fill: #1f78b4; stroke: #000000"/>
   </g>
   <g id="PolyCollection_8"/>
   <g id="PolyCollection_9">
    <path d="M 55.405553 168.411175 
L 55.405553 142.576559 
L 60.06161 142.522284 
L 64.717589 142.427341 
L 69.373482 142.290801 
L 74.02928 142.111492 
L 78.684971 141.887988 
L 83.340544 141.618586 
L 87.995983 141.301281 
L 92.651271 140.933741 
L 97.306389 140.51327 
L 101.961312 140.036765 
L 106.616013 139.500672 
L 111.265135 138.880851 
L 115.895361 137.809196 
L 120.514699 136.058155 
L 125.120181 133.417748 
L 129.889604 129.070231 
L 134.551768 128.424557 
L 139.206487 127.717569 
L 143.861807 126.877137 
L 148.515902 125.896384 
L 153.169315 124.715877 
L 157.821852 123.290683 
L 162.473237 121.561457 
L 167.123066 119.448597 
L 171.770719 116.843555 
L 176.415196 113.595753 
L 181.054784 109.492833 
L 185.735189 104.251001 
L 190.379975 99.91824 
L 195.017458 94.384412 
L 199.640691 87.115263 
L 204.315449 78.772106 
L 208.932708 69.217728 
L 213.580568 56.507891 
L 218.181567 41.814886 
L 222.835791 19.026659 
L 222.835791 91.327622 
L 222.835791 91.327622 
L 218.181567 105.520863 
L 213.580568 115.353788 
L 208.932708 122.993361 
L 204.315449 129.433486 
L 199.640691 133.889681 
L 195.017458 138.971154 
L 190.379975 142.674939 
L 185.735189 145.47226 
L 181.054784 148.191026 
L 176.415196 151.072746 
L 171.770719 153.313682 
L 167.123066 155.083497 
L 162.473237 156.497984 
L 157.821852 157.638408 
L 153.169315 158.563186 
L 148.515902 159.315194 
L 143.861807 159.926463 
L 139.206487 160.392384 
L 134.551768 160.819644 
L 129.889604 161.094736 
L 125.120181 161.833013 
L 120.514699 164.712761 
L 115.895361 166.739841 
L 111.265135 168.109488 
L 106.616013 168.490642 
L 101.961312 168.590418 
L 97.306389 168.665501 
L 92.651271 168.717379 
L 87.995983 168.747311 
L 83.340544 168.75636 
L 78.684971 168.745407 
L 74.02928 168.715177 
L 69.373482 168.666251 
L 64.717589 168.599077 
L 60.06161 168.513982 
L 55.405553 168.411175 
z
" clip-path="url(#pe945516ff2)" style="fill: url(#h4a84f2a057); stroke: #000000"/>
   </g>
   <g id="PolyCollection_10"/>
   <g id="line2d_10">
    <path d="M 55.405553 142.577147 
L 60.06161 142.522869 
L 64.717589 142.427924 
L 69.373482 142.291383 
L 74.02928 142.112073 
L 78.684971 141.888568 
L 83.340544 141.619165 
L 87.995983 141.301861 
L 92.651271 140.934322 
L 97.306389 140.513852 
L 101.961312 140.03735 
L 106.616013 139.50126 
L 111.265135 138.881447 
L 115.895361 137.809819 
L 120.514699 136.05882 
L 125.120181 133.418473 
L 129.889604 129.071014 
L 134.551768 128.425348 
L 139.206487 127.71837 
L 143.861807 126.877948 
L 148.515902 125.897209 
L 153.169315 124.716719 
L 157.821852 123.291546 
L 162.473237 121.562346 
L 167.123066 119.449519 
L 171.770719 116.844518 
L 176.415196 113.596768 
L 181.054784 109.493915 
L 185.735189 104.252164 
L 190.379975 99.919469 
L 195.017458 94.385728 
L 199.640691 87.116697 
L 204.315449 78.773662 
L 208.932708 69.219435 
L 213.580568 56.509792 
L 218.181567 41.817019 
L 222.835791 19.029137 
" clip-path="url(#pe945516ff2)" style="fill: none; stroke: #000000; stroke-width: 1.5; stroke-linecap: square"/>
   </g>
   <g id="line2d_11">
    <defs>
     <path id="m148afa999a" d="M 0 2.5 
C 0.663008 2.5 1.29895 2.236584 1.767767 1.767767 
C 2.236584 1.29895 2.5 0.663008 2.5 0 
C 2.5 -0.663008 2.236584 -1.29895 1.767767 -1.767767 
C 1.29895 -2.236584 0.663008 -2.5 0 -2.5 
C -0.663008 -2.5 -1.29895 -2.236584 -1.767767 -1.767767 
C -2.236584 -1.29895 -2.5 -0.663008 -2.5 0 
C -2.5 0.663008 -2.236584 1.29895 -1.767767 1.767767 
C -1.29895 2.236584 -0.663008 2.5 0 2.5 
z
" style="stroke: #000000"/>
    </defs>
    <g clip-path="url(#pe945516ff2)">
     <use xlink:href="#m148afa999a" x="55.405553" y="142.577147" style="fill: #ffffff; stroke: #000000"/>
     <use xlink:href="#m148afa999a" x="60.06161" y="142.522869" style="fill: #ffffff; stroke: #000000"/>
     <use xlink:href="#m148afa999a" x="64.717589" y="142.427924" style="fill: #ffffff; stroke: #000000"/>
     <use xlink:href="#m148afa999a" x="69.373482" y="142.291383" style="fill: #ffffff; stroke: #000000"/>
     <use xlink:href="#m148afa999a" x="74.02928" y="142.112073" style="fill: #ffffff; stroke: #000000"/>
     <use xlink:href="#m148afa999a" x="78.684971" y="141.888568" style="fill: #ffffff; stroke: #000000"/>
     <use xlink:href="#m148afa999a" x="83.340544" y="141.619165" style="fill: #ffffff; stroke: #000000"/>
     <use xlink:href="#m148afa999a" x="87.995983" y="141.301861" style="fill: #ffffff; stroke: #000000"/>
     <use xlink:href="#m148afa999a" x="92.651271" y="140.934322" style="fill: #ffffff; stroke: #000000"/>
     <use xlink:href="#m148afa999a" x="97.306389" y="140.513852" style="fill: #ffffff; stroke: #000000"/>
     <use xlink:href="#m148afa999a" x="101.961312" y="140.03735" style="fill: #ffffff; stroke: #000000"/>
     <use xlink:href="#m148afa999a" x="106.616013" y="139.50126" style="fill: #ffffff; stroke: #000000"/>
     <use xlink:href="#m148afa999a" x="111.265135" y="138.881447" style="fill: #ffffff; stroke: #000000"/>
     <use xlink:href="#m148afa999a" x="115.895361" y="137.809819" style="fill: #ffffff; stroke: #000000"/>
     <use xlink:href="#m148afa999a" x="120.514699" y="136.05882" style="fill: #ffffff; stroke: #000000"/>
     <use xlink:href="#m148afa999a" x="125.120181" y="133.418473" style="fill: #ffffff; stroke: #000000"/>
    </g>
   </g>
   <g id="line2d_12">
    <defs>
     <path id="mb6dd9605ee" d="M 0 3.535534 
L 2.12132 0 
L 0 -3.535534 
L -2.12132 0 
z
" style="stroke: #000000; stroke-linejoin: miter"/>
    </defs>
    <g clip-path="url(#pe945516ff2)">
     <use xlink:href="#mb6dd9605ee" x="129.889604" y="129.071014" style="fill: #ffffff; stroke: #000000; stroke-linejoin: miter"/>
     <use xlink:href="#mb6dd9605ee" x="134.551768" y="128.425348" style="fill: #ffffff; stroke: #000000; stroke-linejoin: miter"/>
     <use xlink:href="#mb6dd9605ee" x="139.206487" y="127.71837" style="fill: #ffffff; stroke: #000000; stroke-linejoin: miter"/>
     <use xlink:href="#mb6dd9605ee" x="143.861807" y="126.877948" style="fill: #ffffff; stroke: #000000; stroke-linejoin: miter"/>
     <use xlink:href="#mb6dd9605ee" x="148.515902" y="125.897209" style="fill: #ffffff; stroke: #000000; stroke-linejoin: miter"/>
     <use xlink:href="#mb6dd9605ee" x="153.169315" y="124.716719" style="fill: #ffffff; stroke: #000000; stroke-linejoin: miter"/>
     <use xlink:href="#mb6dd9605ee" x="157.821852" y="123.291546" style="fill: #ffffff; stroke: #000000; stroke-linejoin: miter"/>
     <use xlink:href="#mb6dd9605ee" x="162.473237" y="121.562346" style="fill: #ffffff; stroke: #000000; stroke-linejoin: miter"/>
     <use xlink:href="#mb6dd9605ee" x="167.123066" y="119.449519" style="fill: #ffffff; stroke: #000000; stroke-linejoin: miter"/>
     <use xlink:href="#mb6dd9605ee" x="171.770719" y="116.844518" style="fill: #ffffff; stroke: #000000; stroke-linejoin: miter"/>
     <use xlink:href="#mb6dd9605ee" x="176.415196" y="113.596768" style="fill: #ffffff; stroke: #000000; stroke-linejoin: miter"/>
     <use xlink:href="#mb6dd9605ee" x="181.054784" y="109.493915" style="fill: #ffffff; stroke: #000000; stroke-linejoin: miter"/>
    </g>
   </g>
   <g id="line2d_13">
    <defs>
     <path id="mdcf795a12a" d="M -2.5 2.5 
L 2.5 2.5 
L 2.5 -2.5 
L -2.5 -2.5 
z
" style="stroke: #000000; stroke-linejoin: miter"/>
    </defs>
    <g clip-path="url(#pe945516ff2)">
     <use xlink:href="#mdcf795a12a" x="185.735189" y="104.252164" style="fill: #ffffff; stroke: #000000; stroke-linejoin: miter"/>
     <use xlink:href="#mdcf795a12a" x="190.379975" y="99.919469" style="fill: #ffffff; stroke: #000000; stroke-linejoin: miter"/>
     <use xlink:href="#mdcf795a12a" x="195.017458" y="94.385728" style="fill: #ffffff; stroke: #000000; stroke-linejoin: miter"/>
     <use xlink:href="#mdcf795a12a" x="199.640691" y="87.116697" style="fill: #ffffff; stroke: #000000; stroke-linejoin: miter"/>
    </g>
   </g>
   <g id="line2d_14">
    <defs>
     <path id="mb6dfb7feea" d="M 2.5 0 
L -2.5 -2.5 
L -2.5 2.5 
z
" style="stroke: #000000; stroke-linejoin: miter"/>
    </defs>
    <g clip-path="url(#pe945516ff2)">
     <use xlink:href="#mb6dfb7feea" x="204.315449" y="78.773662" style="fill: #ffffff; stroke: #000000; stroke-linejoin: miter"/>
     <use xlink:href="#mb6dfb7feea" x="208.932708" y="69.219435" style="fill: #ffffff; stroke: #000000; stroke-linejoin: miter"/>
    </g>
   </g>
   <g id="line2d_15">
    <defs>
     <path id="m987aecc653" d="M -2.5 -0 
L 2.5 2.5 
L 2.5 -2.5 
z
" style="stroke: #000000; stroke-linejoin: miter"/>
    </defs>
    <g clip-path="url(#pe945516ff2)">
     <use xlink:href="#m987aecc653" x="213.580568" y="56.509792" style="fill: #ffffff; stroke: #000000; stroke-linejoin: miter"/>
     <use xlink:href="#m987aecc653" x="218.181567" y="41.817019" style="fill: #ffffff; stroke: #000000; stroke-linejoin: miter"/>
     <use xlink:href="#m987aecc653" x="222.835791" y="19.029137" style="fill: #ffffff; stroke: #000000; stroke-linejoin: miter"/>
    </g>
   </g>
   <g id="legend_1">
    <g id="patch_7">
     <path d="M 57.36 26.933906 
L 66.36 26.933906 
L 66.36 18.878906 
L 57.36 18.878906 
z
" style="fill: #ffffff; stroke: #000000; stroke-linejoin: miter"/>
    </g>
    <g id="text_12">
     <text style="font: 9px 'Arial', serif; text-anchor: start" x="73.56" y="25.988906" transform="rotate(-0 73.56 25.988906)">CAPEX</text>
    </g>
    <g id="patch_8">
     <path d="M 57.36 37.632656 
L 66.36 37.632656 
L 66.36 29.577656 
L 57.36 29.577656 
z
" style="fill: url(#h33cfb5dc63); stroke: #000000; stroke-linejoin: miter"/>
    </g>
    <g id="text_13">
     <text style="font: 9px 'Arial', serif; text-anchor: start" x="73.56" y="36.687656" transform="rotate(-0 73.56 36.687656)">OPEX</text>
    </g>
    <g id="patch_9">
     <path d="M 57.36 48.331406 
L 66.36 48.331406 
L 66.36 40.276406 
L 57.36 40.276406 
z
" style="fill: #a6cee3; stroke: #000000; stroke-linejoin: miter"/>
    </g>
    <g id="text_14">
     <text style="font: 9px 'Arial', serif; text-anchor: start" x="73.56" y="47.386406" transform="rotate(-0 73.56 47.386406)">RO</text>
    </g>
    <g id="patch_10">
     <path d="M 57.36 59.030156 
L 66.36 59.030156 
L 66.36 50.975156 
L 57.36 50.975156 
z
" style="fill: #1f78b4; stroke: #000000; stroke-linejoin: miter"/>
    </g>
    <g id="text_15">
     <text style="font: 9px 'Arial', serif; text-anchor: start" x="73.56" y="58.085156" transform="rotate(-0 73.56 58.085156)">Pumps</text>
    </g>
    <g id="line2d_16">
     <g>
      <use xlink:href="#m148afa999a" x="61.86" y="65.228906" style="fill: #ffffff; stroke: #000000"/>
     </g>
    </g>
    <g id="text_16">
     <text style="font: 9px 'Arial', serif; text-anchor: start" x="73.56" y="68.783906" transform="rotate(-0 73.56 68.783906)">RO</text>
    </g>
    <g id="line2d_17">
     <g>
      <use xlink:href="#mb6dd9605ee" x="61.86" y="75.927656" style="fill: #ffffff; stroke: #000000; stroke-linejoin: miter"/>
     </g>
    </g>
    <g id="text_17">
     <text style="font: 9px 'Arial', serif; text-anchor: start" x="73.56" y="79.482656" transform="rotate(-0 73.56 79.482656)">1 stage LSRRO</text>
    </g>
    <g id="line2d_18">
     <g>
      <use xlink:href="#mdcf795a12a" x="61.86" y="86.731875" style="fill: #ffffff; stroke: #000000; stroke-linejoin: miter"/>
     </g>
    </g>
    <g id="text_18">
     <text style="font: 9px 'Arial', serif; text-anchor: start" x="73.56" y="90.286875" transform="rotate(-0 73.56 90.286875)">2 stage LSRRO</text>
    </g>
    <g id="line2d_19">
     <g>
      <use xlink:href="#mb6dfb7feea" x="61.86" y="97.536094" style="fill: #ffffff; stroke: #000000; stroke-linejoin: miter"/>
     </g>
    </g>
    <g id="text_19">
     <text style="font: 9px 'Arial', serif; text-anchor: start" x="73.56" y="101.091094" transform="rotate(-0 73.56 101.091094)">3 stage LSRRO</text>
    </g>
    <g id="line2d_20">
     <g>
      <use xlink:href="#m987aecc653" x="61.86" y="108.340312" style="fill: #ffffff; stroke: #000000; stroke-linejoin: miter"/>
     </g>
    </g>
    <g id="text_20">
     <text style="font: 9px 'Arial', serif; text-anchor: start" x="73.56" y="111.895312" transform="rotate(-0 73.56 111.895312)">4 stage LSRRO</text>
    </g>
   </g>
  </g>
 </g>
 <defs>
  <clipPath id="pe945516ff2">
   <rect x="49.26" y="10.778906" width="181.35" height="180.18"/>
  </clipPath>
 </defs>
 <defs>
  <pattern id="h5fdebf3601" patternUnits="userSpaceOnUse" x="0" y="0" width="72" height="72">
   <rect x="0" y="0" width="73" height="73" fill="#a6cee3"/>
   <path d="M -36 36 
L 36 -36 
M -30 42 
L 42 -30 
M -24 48 
L 48 -24 
M -18 54 
L 54 -18 
M -12 60 
L 60 -12 
M -6 66 
L 66 -6 
M 0 72 
L 72 0 
M 6 78 
L 78 6 
M 12 84 
L 84 12 
M 18 90 
L 90 18 
M 24 96 
L 96 24 
M 30 102 
L 102 30 
M 36 108 
L 108 36 
" style="fill: #000000; stroke: #000000; stroke-width: 1.0; stroke-linecap: butt; stroke-linejoin: miter"/>
  </pattern>
  <pattern id="h4a84f2a057" patternUnits="userSpaceOnUse" x="0" y="0" width="72" height="72">
   <rect x="0" y="0" width="73" height="73" fill="#1f78b4"/>
   <path d="M -36 36 
L 36 -36 
M -30 42 
L 42 -30 
M -24 48 
L 48 -24 
M -18 54 
L 54 -18 
M -12 60 
L 60 -12 
M -6 66 
L 66 -6 
M 0 72 
L 72 0 
M 6 78 
L 78 6 
M 12 84 
L 84 12 
M 18 90 
L 90 18 
M 24 96 
L 96 24 
M 30 102 
L 102 30 
M 36 108 
L 108 36 
" style="fill: #000000; stroke: #000000; stroke-width: 1.0; stroke-linecap: butt; stroke-linejoin: miter"/>
  </pattern>
  <pattern id="h33cfb5dc63" patternUnits="userSpaceOnUse" x="0" y="0" width="72" height="72">
   <rect x="0" y="0" width="73" height="73" fill="#ffffff"/>
   <path d="M -36 36 
L 36 -36 
M -30 42 
L 42 -30 
M -24 48 
L 48 -24 
M -18 54 
L 54 -18 
M -12 60 
L 60 -12 
M -6 66 
L 66 -6 
M 0 72 
L 72 0 
M 6 78 
L 78 6 
M 12 84 
L 84 12 
M 18 90 
L 90 18 
M 24 96 
L 96 24 
M 30 102 
L 102 30 
M 36 108 
L 108 36 
" style="fill: #000000; stroke: #000000; stroke-width: 1.0; stroke-linecap: butt; stroke-linejoin: miter"/>
  </pattern>
 </defs>
</svg>
